<mxfile host="Electron" agent="Mozilla/5.0 (X11; Linux x86_64) AppleWebKit/537.36 (KHTML, like Gecko) draw.io/24.7.8 Chrome/128.0.6613.162 Electron/32.1.2 Safari/537.36" version="24.7.8">
  <diagram name="Page-1" id="5f0bae14-7c28-e335-631c-24af17079c00">
    <mxGraphModel dx="1728" dy="996" grid="1" gridSize="10" guides="1" tooltips="1" connect="1" arrows="1" fold="1" page="1" pageScale="1" pageWidth="1100" pageHeight="850" background="none" math="0" shadow="0">
      <root>
        <mxCell id="0" />
        <mxCell id="1" parent="0" />
        <mxCell id="39150e848f15840c-1" value="FRONTEND" style="verticalAlign=top;align=left;spacingTop=8;spacingLeft=2;spacingRight=12;shape=cube;size=10;direction=south;fontStyle=4;html=1;rounded=0;shadow=0;comic=0;labelBackgroundColor=none;strokeWidth=1;fontFamily=Verdana;fontSize=12" parent="1" vertex="1">
          <mxGeometry x="120" y="70" width="330" height="220" as="geometry" />
        </mxCell>
        <mxCell id="39150e848f15840c-2" value="BACKEND" style="verticalAlign=top;align=left;spacingTop=8;spacingLeft=2;spacingRight=12;shape=cube;size=10;direction=south;fontStyle=4;html=1;rounded=0;shadow=0;comic=0;labelBackgroundColor=none;strokeWidth=1;fontFamily=Verdana;fontSize=12" parent="1" vertex="1">
          <mxGeometry x="530" y="70" width="360" height="220" as="geometry" />
        </mxCell>
        <mxCell id="39150e848f15840c-3" value="DATABASE" style="verticalAlign=top;align=left;spacingTop=8;spacingLeft=2;spacingRight=12;shape=cube;size=10;direction=south;fontStyle=4;html=1;rounded=0;shadow=0;comic=0;labelBackgroundColor=none;strokeWidth=1;fontFamily=Verdana;fontSize=12" parent="1" vertex="1">
          <mxGeometry x="510" y="420" width="410" height="150" as="geometry" />
        </mxCell>
        <mxCell id="KozkrT9PRU-6Pl3ub3JZ-26" style="edgeStyle=orthogonalEdgeStyle;shape=connector;rounded=0;orthogonalLoop=1;jettySize=auto;html=1;exitX=1;exitY=0.5;exitDx=0;exitDy=0;entryX=0;entryY=0.3;entryDx=0;entryDy=0;strokeColor=default;align=center;verticalAlign=middle;fontFamily=Helvetica;fontSize=11;fontColor=default;labelBackgroundColor=default;endArrow=none;endFill=0;" edge="1" parent="1" source="39150e848f15840c-5" target="39150e848f15840c-7">
          <mxGeometry relative="1" as="geometry">
            <Array as="points">
              <mxPoint x="500" y="180" />
              <mxPoint x="500" y="153" />
            </Array>
          </mxGeometry>
        </mxCell>
        <mxCell id="39150e848f15840c-5" value="Login Form" style="shape=component;align=left;spacingLeft=36;rounded=0;shadow=0;comic=0;labelBackgroundColor=none;strokeWidth=1;fontFamily=Verdana;fontSize=12;html=1;" parent="1" vertex="1">
          <mxGeometry x="130" y="150" width="120" height="60" as="geometry" />
        </mxCell>
        <mxCell id="KozkrT9PRU-6Pl3ub3JZ-24" style="edgeStyle=orthogonalEdgeStyle;shape=connector;rounded=0;orthogonalLoop=1;jettySize=auto;html=1;exitX=0.25;exitY=1;exitDx=0;exitDy=0;entryX=0.5;entryY=0;entryDx=0;entryDy=0;strokeColor=default;align=center;verticalAlign=middle;fontFamily=Helvetica;fontSize=11;fontColor=default;labelBackgroundColor=default;endArrow=none;endFill=0;" edge="1" parent="1" source="39150e848f15840c-7" target="KozkrT9PRU-6Pl3ub3JZ-22">
          <mxGeometry relative="1" as="geometry" />
        </mxCell>
        <mxCell id="KozkrT9PRU-6Pl3ub3JZ-25" style="edgeStyle=orthogonalEdgeStyle;shape=connector;rounded=0;orthogonalLoop=1;jettySize=auto;html=1;exitX=0.75;exitY=1;exitDx=0;exitDy=0;entryX=0.5;entryY=0;entryDx=0;entryDy=0;strokeColor=default;align=center;verticalAlign=middle;fontFamily=Helvetica;fontSize=11;fontColor=default;labelBackgroundColor=default;endArrow=none;endFill=0;" edge="1" parent="1" source="39150e848f15840c-7" target="KozkrT9PRU-6Pl3ub3JZ-23">
          <mxGeometry relative="1" as="geometry" />
        </mxCell>
        <mxCell id="39150e848f15840c-7" value="Authentication" style="shape=component;align=left;spacingLeft=36;rounded=0;shadow=0;comic=0;labelBackgroundColor=none;strokeWidth=1;fontFamily=Verdana;fontSize=12;html=1;" parent="1" vertex="1">
          <mxGeometry x="550" y="135" width="120" height="60" as="geometry" />
        </mxCell>
        <mxCell id="KozkrT9PRU-6Pl3ub3JZ-9" style="edgeStyle=orthogonalEdgeStyle;shape=connector;rounded=0;orthogonalLoop=1;jettySize=auto;html=1;exitX=1;exitY=0.75;exitDx=0;exitDy=0;entryX=0;entryY=0.7;entryDx=0;entryDy=0;strokeColor=default;align=center;verticalAlign=middle;fontFamily=Helvetica;fontSize=11;fontColor=default;labelBackgroundColor=default;endArrow=none;endFill=0;" edge="1" parent="1" source="KozkrT9PRU-6Pl3ub3JZ-2" target="KozkrT9PRU-6Pl3ub3JZ-8">
          <mxGeometry relative="1" as="geometry" />
        </mxCell>
        <mxCell id="KozkrT9PRU-6Pl3ub3JZ-2" value="Users" style="shape=component;align=left;spacingLeft=36;rounded=0;shadow=0;comic=0;labelBackgroundColor=none;strokeWidth=1;fontFamily=Verdana;fontSize=12;html=1;" vertex="1" parent="1">
          <mxGeometry x="540" y="465" width="120" height="60" as="geometry" />
        </mxCell>
        <mxCell id="KozkrT9PRU-6Pl3ub3JZ-30" style="edgeStyle=orthogonalEdgeStyle;shape=connector;rounded=0;orthogonalLoop=1;jettySize=auto;html=1;exitX=0.5;exitY=1;exitDx=0;exitDy=0;entryX=0.25;entryY=0;entryDx=0;entryDy=0;strokeColor=default;align=center;verticalAlign=middle;fontFamily=Helvetica;fontSize=11;fontColor=default;labelBackgroundColor=default;endArrow=none;endFill=0;" edge="1" parent="1" source="KozkrT9PRU-6Pl3ub3JZ-3" target="KozkrT9PRU-6Pl3ub3JZ-8">
          <mxGeometry relative="1" as="geometry" />
        </mxCell>
        <mxCell id="KozkrT9PRU-6Pl3ub3JZ-3" value="ADD" style="ellipse;whiteSpace=wrap;html=1;rounded=0;shadow=0;comic=0;labelBackgroundColor=none;strokeWidth=1;fontFamily=Verdana;fontSize=12;align=center;" vertex="1" parent="1">
          <mxGeometry x="710" y="229.34" width="40" height="40.66" as="geometry" />
        </mxCell>
        <mxCell id="KozkrT9PRU-6Pl3ub3JZ-5" style="edgeStyle=orthogonalEdgeStyle;rounded=0;orthogonalLoop=1;jettySize=auto;html=1;exitX=0.5;exitY=0;exitDx=0;exitDy=0;entryX=0.413;entryY=1.011;entryDx=0;entryDy=0;entryPerimeter=0;endArrow=none;endFill=0;" edge="1" parent="1" source="KozkrT9PRU-6Pl3ub3JZ-3">
          <mxGeometry relative="1" as="geometry">
            <mxPoint x="749.5600000000002" y="195.00000000000009" as="targetPoint" />
            <Array as="points">
              <mxPoint x="730" y="210" />
              <mxPoint x="750" y="210" />
            </Array>
          </mxGeometry>
        </mxCell>
        <mxCell id="KozkrT9PRU-6Pl3ub3JZ-8" value="Notes" style="shape=component;align=left;spacingLeft=36;rounded=0;shadow=0;comic=0;labelBackgroundColor=none;strokeWidth=1;fontFamily=Verdana;fontSize=12;html=1;" vertex="1" parent="1">
          <mxGeometry x="720" y="465" width="120" height="60" as="geometry" />
        </mxCell>
        <mxCell id="KozkrT9PRU-6Pl3ub3JZ-28" style="edgeStyle=orthogonalEdgeStyle;shape=connector;rounded=0;orthogonalLoop=1;jettySize=auto;html=1;exitX=0;exitY=0.3;exitDx=0;exitDy=0;entryX=0;entryY=0.3;entryDx=0;entryDy=0;strokeColor=default;align=center;verticalAlign=middle;fontFamily=Helvetica;fontSize=11;fontColor=default;labelBackgroundColor=default;endArrow=none;endFill=0;" edge="1" parent="1" source="KozkrT9PRU-6Pl3ub3JZ-10" target="KozkrT9PRU-6Pl3ub3JZ-12">
          <mxGeometry relative="1" as="geometry">
            <Array as="points">
              <mxPoint x="260" y="128" />
              <mxPoint x="260" y="20" />
              <mxPoint x="690" y="20" />
              <mxPoint x="690" y="153" />
            </Array>
          </mxGeometry>
        </mxCell>
        <mxCell id="KozkrT9PRU-6Pl3ub3JZ-10" value="Notes List" style="shape=component;align=left;spacingLeft=36;rounded=0;shadow=0;comic=0;labelBackgroundColor=none;strokeWidth=1;fontFamily=Verdana;fontSize=12;html=1;" vertex="1" parent="1">
          <mxGeometry x="280" y="110" width="120" height="60" as="geometry" />
        </mxCell>
        <mxCell id="KozkrT9PRU-6Pl3ub3JZ-29" style="edgeStyle=orthogonalEdgeStyle;shape=connector;rounded=0;orthogonalLoop=1;jettySize=auto;html=1;exitX=0;exitY=0.7;exitDx=0;exitDy=0;entryX=0;entryY=0.7;entryDx=0;entryDy=0;strokeColor=default;align=center;verticalAlign=middle;fontFamily=Helvetica;fontSize=11;fontColor=default;labelBackgroundColor=default;endArrow=none;endFill=0;" edge="1" parent="1" source="KozkrT9PRU-6Pl3ub3JZ-11" target="KozkrT9PRU-6Pl3ub3JZ-12">
          <mxGeometry relative="1" as="geometry">
            <Array as="points">
              <mxPoint x="260" y="237" />
              <mxPoint x="260" y="330" />
              <mxPoint x="690" y="330" />
              <mxPoint x="690" y="177" />
            </Array>
          </mxGeometry>
        </mxCell>
        <mxCell id="KozkrT9PRU-6Pl3ub3JZ-11" value="Note Editor" style="shape=component;align=left;spacingLeft=36;rounded=0;shadow=0;comic=0;labelBackgroundColor=none;strokeWidth=1;fontFamily=Verdana;fontSize=12;html=1;" vertex="1" parent="1">
          <mxGeometry x="280" y="195" width="120" height="60" as="geometry" />
        </mxCell>
        <mxCell id="KozkrT9PRU-6Pl3ub3JZ-12" value="Notes API" style="shape=component;align=left;spacingLeft=36;rounded=0;shadow=0;comic=0;labelBackgroundColor=none;strokeWidth=1;fontFamily=Verdana;fontSize=12;html=1;" vertex="1" parent="1">
          <mxGeometry x="710" y="135" width="120" height="60" as="geometry" />
        </mxCell>
        <mxCell id="KozkrT9PRU-6Pl3ub3JZ-15" style="edgeStyle=orthogonalEdgeStyle;rounded=0;orthogonalLoop=1;jettySize=auto;html=1;exitX=0.5;exitY=0;exitDx=0;exitDy=0;entryX=0.413;entryY=1.011;entryDx=0;entryDy=0;entryPerimeter=0;endArrow=none;endFill=0;" edge="1" parent="1">
          <mxGeometry relative="1" as="geometry">
            <mxPoint x="779.5600000000002" y="195.00000000000009" as="targetPoint" />
            <mxPoint x="780" y="229.33999999999992" as="sourcePoint" />
          </mxGeometry>
        </mxCell>
        <mxCell id="KozkrT9PRU-6Pl3ub3JZ-17" style="edgeStyle=orthogonalEdgeStyle;rounded=0;orthogonalLoop=1;jettySize=auto;html=1;exitX=0.5;exitY=0;exitDx=0;exitDy=0;entryX=0.413;entryY=1.011;entryDx=0;entryDy=0;entryPerimeter=0;endArrow=none;endFill=0;" edge="1" parent="1" source="KozkrT9PRU-6Pl3ub3JZ-21">
          <mxGeometry relative="1" as="geometry">
            <mxPoint x="809.5600000000002" y="195.00000000000009" as="targetPoint" />
            <mxPoint x="810" y="229.33999999999992" as="sourcePoint" />
            <Array as="points">
              <mxPoint x="830" y="210" />
              <mxPoint x="810" y="210" />
            </Array>
          </mxGeometry>
        </mxCell>
        <mxCell id="KozkrT9PRU-6Pl3ub3JZ-31" style="edgeStyle=orthogonalEdgeStyle;shape=connector;rounded=0;orthogonalLoop=1;jettySize=auto;html=1;exitX=0.5;exitY=1;exitDx=0;exitDy=0;entryX=0.5;entryY=0;entryDx=0;entryDy=0;strokeColor=default;align=center;verticalAlign=middle;fontFamily=Helvetica;fontSize=11;fontColor=default;labelBackgroundColor=default;endArrow=none;endFill=0;" edge="1" parent="1" source="KozkrT9PRU-6Pl3ub3JZ-20" target="KozkrT9PRU-6Pl3ub3JZ-8">
          <mxGeometry relative="1" as="geometry" />
        </mxCell>
        <mxCell id="KozkrT9PRU-6Pl3ub3JZ-20" value="DEL" style="ellipse;whiteSpace=wrap;html=1;rounded=0;shadow=0;comic=0;labelBackgroundColor=none;strokeWidth=1;fontFamily=Verdana;fontSize=12;align=center;" vertex="1" parent="1">
          <mxGeometry x="760" y="229.34" width="40" height="40.66" as="geometry" />
        </mxCell>
        <mxCell id="KozkrT9PRU-6Pl3ub3JZ-32" style="edgeStyle=orthogonalEdgeStyle;shape=connector;rounded=0;orthogonalLoop=1;jettySize=auto;html=1;exitX=0.5;exitY=1;exitDx=0;exitDy=0;entryX=0.75;entryY=0;entryDx=0;entryDy=0;strokeColor=default;align=center;verticalAlign=middle;fontFamily=Helvetica;fontSize=11;fontColor=default;labelBackgroundColor=default;endArrow=none;endFill=0;" edge="1" parent="1" source="KozkrT9PRU-6Pl3ub3JZ-21" target="KozkrT9PRU-6Pl3ub3JZ-8">
          <mxGeometry relative="1" as="geometry" />
        </mxCell>
        <mxCell id="KozkrT9PRU-6Pl3ub3JZ-21" value="EDIT" style="ellipse;whiteSpace=wrap;html=1;rounded=0;shadow=0;comic=0;labelBackgroundColor=none;strokeWidth=1;fontFamily=Verdana;fontSize=12;align=center;" vertex="1" parent="1">
          <mxGeometry x="810" y="229.34" width="40" height="40.66" as="geometry" />
        </mxCell>
        <mxCell id="KozkrT9PRU-6Pl3ub3JZ-34" style="edgeStyle=orthogonalEdgeStyle;shape=connector;rounded=0;orthogonalLoop=1;jettySize=auto;html=1;exitX=0.5;exitY=1;exitDx=0;exitDy=0;entryX=0.5;entryY=0;entryDx=0;entryDy=0;strokeColor=default;align=center;verticalAlign=middle;fontFamily=Helvetica;fontSize=11;fontColor=default;labelBackgroundColor=default;endArrow=none;endFill=0;" edge="1" parent="1" source="KozkrT9PRU-6Pl3ub3JZ-22" target="KozkrT9PRU-6Pl3ub3JZ-2">
          <mxGeometry relative="1" as="geometry" />
        </mxCell>
        <mxCell id="KozkrT9PRU-6Pl3ub3JZ-22" value="NAME" style="ellipse;whiteSpace=wrap;html=1;rounded=0;shadow=0;comic=0;labelBackgroundColor=none;strokeWidth=1;fontFamily=Verdana;fontSize=12;align=center;" vertex="1" parent="1">
          <mxGeometry x="560" y="229.34" width="40" height="40.66" as="geometry" />
        </mxCell>
        <mxCell id="KozkrT9PRU-6Pl3ub3JZ-33" style="edgeStyle=orthogonalEdgeStyle;shape=connector;rounded=0;orthogonalLoop=1;jettySize=auto;html=1;exitX=0.5;exitY=1;exitDx=0;exitDy=0;entryX=0.75;entryY=0;entryDx=0;entryDy=0;strokeColor=default;align=center;verticalAlign=middle;fontFamily=Helvetica;fontSize=11;fontColor=default;labelBackgroundColor=default;endArrow=none;endFill=0;" edge="1" parent="1" source="KozkrT9PRU-6Pl3ub3JZ-23" target="KozkrT9PRU-6Pl3ub3JZ-2">
          <mxGeometry relative="1" as="geometry" />
        </mxCell>
        <mxCell id="KozkrT9PRU-6Pl3ub3JZ-23" value="PSWD" style="ellipse;whiteSpace=wrap;html=1;rounded=0;shadow=0;comic=0;labelBackgroundColor=none;strokeWidth=1;fontFamily=Verdana;fontSize=12;align=center;" vertex="1" parent="1">
          <mxGeometry x="620" y="229.34" width="40" height="40.66" as="geometry" />
        </mxCell>
      </root>
    </mxGraphModel>
  </diagram>
</mxfile>
